<?xml version="1.0" encoding="utf-8" ?><svg xmlns="http://www.w3.org/2000/svg" xmlns:xlink="http://www.w3.org/1999/xlink" width="1024" height="1024" viewBox="0 0 1024 1024"><path fill="#700000" transform="scale(2.048 2.048)" d="M134.284 97.2785C137.598 97.4961 142.284 97.3558 145.729 97.3524L165.849 97.3441L229.931 97.351L316.967 97.3373L347.775 97.3505C353.425 97.3478 359.558 97.4504 365.177 97.2541C365.547 111.004 364.973 125.032 365.192 138.813C365.295 145.279 365.326 152.202 365.045 158.638L366.552 158.703C367.404 159.182 367.701 159.163 367.965 160.223C367.65 162.781 367.801 171.184 367.779 174.424L367.757 177.446C368.759 177.624 369.508 177.8 370.539 177.776C376.873 182.157 395.801 194.99 397.112 202.656C397.489 204.86 396.776 206.827 395.464 208.582C391.975 213.249 377.121 222.721 371.569 226.36C369.452 227.748 366.941 229.078 365.049 230.726C362.07 231.958 356.721 235.348 353.754 237.11C350.284 239.14 346.75 241.061 343.159 242.87C340.045 244.064 334.872 247.942 331.78 247.902C327.36 247.844 327.877 244.588 330.21 241.986C334.107 237.641 339.432 234.654 343.327 230.727C342.923 226.411 343.119 219.583 343.12 215.151C343.085 206.866 343.116 198.58 343.215 190.295C340.472 188.174 336.238 186.173 333.135 184.543C320.942 178.136 309.182 174.627 296.243 170.511C300.16 176.119 303.703 182.001 305.805 188.544C316.157 220.776 299.295 253.488 267.534 264.116C252.802 269.011 236.729 267.859 222.846 260.912C208.612 253.588 197.82 240.973 192.787 225.777C188.261 211.815 189.399 195.82 195.264 182.425C196.978 178.513 198.836 174.65 200.785 170.85C185.389 175.491 170.219 180.376 156.302 188.701C150.195 191.657 143.806 196.249 138.222 200.114C136.992 200.965 133.737 203.906 133.203 204.227L133.085 204.47C132.723 204.546 132.382 204.593 132.016 204.631C131.438 205.78 131.81 222.585 131.525 225.726C126.636 222.478 121.933 218.857 117.183 215.403C113.687 212.86 108.627 209.968 105.922 206.688C104.373 204.808 103.678 202.552 104.016 200.127C105.383 190.3 126.647 178.314 134.353 172.17L134.569 171.995C134.28 166.013 134.404 159.514 134.404 153.493L134.409 118.343C134.41 111.608 134.57 103.952 134.284 97.2785ZM156.244 160.163C208.29 135.808 267.838 132.95 321.976 152.21C330.07 155.095 335.486 157.557 343.175 161.475C343.011 147.985 342.902 132.724 343.187 119.274C340.157 119.451 335.645 119.307 332.5 119.307L310.955 119.305L245.615 119.302L185.399 119.302L166.898 119.306C163.592 119.313 159.489 119.489 156.284 119.271C156.538 121.479 156.451 124.78 156.452 127.05L156.449 139.42C156.446 143.981 156.729 156.015 156.244 160.163ZM365.218 209.135C364.866 210.7 365.04 212.214 365.216 213.81C366.51 212.904 369.24 210.501 369.57 208.903C369.213 207.92 369.489 208.361 368.568 207.634L368.108 207.715C367.076 209.105 367.017 208.985 365.218 209.135ZM251.38 225.142C261.204 223.944 268.166 214.965 266.878 205.152C265.59 195.339 256.547 188.46 246.746 189.838C237.072 191.198 230.301 200.099 231.572 209.785C232.843 219.472 241.682 226.324 251.38 225.142Z"/><path fill="#502E20" transform="scale(2.048 2.048)" d="M134.284 97.2785C137.598 97.4961 142.284 97.3558 145.729 97.3524L165.849 97.3441L229.931 97.351L316.967 97.3373L347.775 97.3505C353.425 97.3478 359.558 97.4504 365.177 97.2541C365.547 111.004 364.973 125.032 365.192 138.813C365.295 145.279 365.326 152.202 365.045 158.638L366.552 158.703C367.404 159.182 367.701 159.163 367.965 160.223C367.65 162.781 367.801 171.184 367.779 174.424L367.757 177.446C368.759 177.624 369.508 177.8 370.539 177.776C376.873 182.157 395.801 194.99 397.112 202.656C397.489 204.86 396.776 206.827 395.464 208.582C391.975 213.249 377.121 222.721 371.569 226.36C369.452 227.748 366.941 229.078 365.049 230.726C362.07 231.958 356.721 235.348 353.754 237.11C350.284 239.14 346.75 241.061 343.159 242.87C340.045 244.064 334.872 247.942 331.78 247.902C327.36 247.844 327.877 244.588 330.21 241.986C334.107 237.641 339.432 234.654 343.327 230.727C342.923 226.411 343.119 219.583 343.12 215.151C343.085 206.866 343.116 198.58 343.215 190.295C347.476 191.462 360.115 201.338 364.775 204.039C364.997 199.635 364.786 193.449 364.799 188.919C364.812 184.592 365.02 177.851 364.671 173.836C363.719 173.325 362.381 172.47 361.473 171.832C355.654 167.741 349.304 164.928 343.175 161.475C343.011 147.985 342.902 132.724 343.187 119.274C340.157 119.451 335.645 119.307 332.5 119.307L310.955 119.305L245.615 119.302L185.399 119.302L166.898 119.306C163.592 119.313 159.489 119.489 156.284 119.271C156.538 121.479 156.451 124.78 156.452 127.05L156.449 139.42C156.446 143.981 156.729 156.015 156.244 160.163C151.927 162.279 148.314 164.133 144.177 166.554C142.621 167.466 135.969 171.495 134.569 171.995C134.28 166.013 134.404 159.514 134.404 153.493L134.409 118.343C134.41 111.608 134.57 103.952 134.284 97.2785ZM365.218 209.135C364.866 210.7 365.04 212.214 365.216 213.81C366.51 212.904 369.24 210.501 369.57 208.903C369.213 207.92 369.489 208.361 368.568 207.634L368.108 207.715C367.076 209.105 367.017 208.985 365.218 209.135Z"/><path fill="#700000" transform="scale(2.048 2.048)" d="M367.757 177.446C368.759 177.624 369.508 177.8 370.539 177.776C376.873 182.157 395.801 194.99 397.112 202.656C397.489 204.86 396.776 206.827 395.464 208.582C391.975 213.249 377.121 222.721 371.569 226.36C369.452 227.748 366.941 229.078 365.049 230.726C362.07 231.958 356.721 235.348 353.754 237.11C350.284 239.14 346.75 241.061 343.159 242.87C340.045 244.064 334.872 247.942 331.78 247.902C327.36 247.844 327.877 244.588 330.21 241.986C334.107 237.641 339.432 234.654 343.327 230.727C345.529 229.936 362.674 216.116 365.216 213.81C366.51 212.904 369.24 210.501 369.57 208.903C369.213 207.92 369.489 208.361 368.568 207.634L368.108 207.715C367.241 205.357 367.743 181.58 367.757 177.446Z"/><path fill="#FEFEFE" transform="scale(2.048 2.048)" d="M365.218 209.135C364.595 207.223 364.734 164.201 365.045 158.638L366.552 158.703C367.404 159.182 367.701 159.163 367.965 160.223C367.65 162.781 367.801 171.184 367.779 174.424L367.757 177.446C367.743 181.58 367.241 205.357 368.108 207.715C367.076 209.105 367.017 208.985 365.218 209.135Z"/><path fill="#700000" transform="scale(2.048 2.048)" d="M365.049 230.726C365.358 239.011 365.097 247.446 365.14 255.735C365.157 259.025 364.953 265.463 365.461 268.576L365.543 268.326C366.838 264.22 368.122 248.233 376.458 249.813C377.545 250.172 378.68 251.985 378.88 252.948C381.366 264.926 378.401 277.752 377.087 289.647C375.709 302.117 374.184 301.225 365.278 308.945C364.981 311.671 365.128 315.517 365.239 318.291C380.412 305.572 393.838 292.084 401.1 273.218C402.422 269.71 403.625 266.158 404.708 262.569C406.071 258.173 408.66 244.829 414.938 244.71C415.53 244.67 416.926 245.652 417.075 246.181C419.696 255.44 416.941 269.754 414.241 278.9C402.569 318.438 372.983 350.401 336.838 369.295C331.145 372.271 325.696 375.426 320.266 378.803C297.576 393.221 277.885 413.76 270.033 440.002C269.614 441.401 268.811 445.434 267.952 446.216L267.603 446.184C265.495 442.839 261.835 433.141 260.515 429.129C253.568 408.016 250.526 385.739 255.515 363.833C258.963 348.697 266.857 332.694 278.722 322.421C281.684 320.465 285.539 316.88 288.66 315.128C292.324 313.071 310.742 303.748 312.44 300.769L312.752 300.587C320.751 295.856 329.115 287.417 336.247 281.86C338.972 282.539 339.761 288.614 339.951 290.923C340.214 294.121 339.784 297.842 338.574 300.823C340.307 300.655 341.519 300.635 343.267 300.638C343.031 298.562 343.138 295.34 343.139 293.176L343.134 280.325C343.129 268.051 342.92 255.11 343.159 242.87C346.75 241.061 350.284 239.14 353.754 237.11C356.721 235.348 362.07 231.958 365.049 230.726ZM358.973 322.493C352.225 322.879 344.964 322.597 338.188 322.634C331.739 322.67 325.17 322.697 318.728 322.54C314.679 323.817 308.871 327.567 306.938 331.48C306.498 332.372 306.288 333.357 306.684 334.305C307.293 335.764 309.089 336.777 310.512 337.25C319.209 340.145 341.816 332.057 349.976 327.757C353.046 326.139 356.099 324.442 358.973 322.493Z"/><path fill="#502E20" transform="scale(2.048 2.048)" d="M365.049 230.726C365.358 239.011 365.097 247.446 365.14 255.735C365.157 259.025 364.953 265.463 365.461 268.576L365.543 268.326C366.838 264.22 368.122 248.233 376.458 249.813C377.545 250.172 378.68 251.985 378.88 252.948C381.366 264.926 378.401 277.752 377.087 289.647C375.709 302.117 374.184 301.225 365.278 308.945C364.981 311.671 365.128 315.517 365.239 318.291C363.47 320.517 361.544 321.478 358.973 322.493C352.225 322.879 344.964 322.597 338.188 322.634C331.739 322.67 325.17 322.697 318.728 322.54C319.788 321.069 322.63 319.602 324.275 318.471C331.503 313.498 335.073 308.627 338.574 300.823C340.307 300.655 341.519 300.635 343.267 300.638C343.031 298.562 343.138 295.34 343.139 293.176L343.134 280.325C343.129 268.051 342.92 255.11 343.159 242.87C346.75 241.061 350.284 239.14 353.754 237.11C356.721 235.348 362.07 231.958 365.049 230.726Z"/><path fill="#700000" transform="scale(2.048 2.048)" d="M365.461 268.576L365.543 268.326C366.838 264.22 368.122 248.233 376.458 249.813C377.545 250.172 378.68 251.985 378.88 252.948C381.366 264.926 378.401 277.752 377.087 289.647C375.709 302.117 374.184 301.225 365.278 308.945C364.618 305.464 364.659 272.077 365.461 268.576Z"/><path fill="#700000" transform="scale(2.048 2.048)" d="M232.278 447.747C232.21 446.91 232.119 446.076 232.003 445.244C230.942 437.902 227.659 430.443 224.29 423.904C214.413 404.732 198.369 389.929 180.374 378.435C173.04 373.75 165.241 369.88 157.565 365.808C118.408 343.376 86.3811 302.802 82.9576 256.747C82.7235 253.599 82.2993 245.254 86.4715 244.89C89.6409 244.731 93.0321 250.096 93.5812 252.739C99.5376 281.412 112.651 298.408 134.54 317.303C136.7 319.515 139.136 321.24 142.006 322.418C144.231 324.222 146.594 325.3 149.038 326.672C158.415 331.951 168.656 335.313 179.26 337.049C182.018 337.512 184.766 338.075 187.558 337.803C190.183 337.546 195.195 336.241 194.395 332.7C193.361 328.118 186.771 324.327 182.876 322.603C181.74 321.084 178.221 319.379 176.497 318.12C169.152 312.761 166.533 308.394 162.472 300.747C160.497 295.232 160.6 289.094 162.979 283.684C163.319 282.91 163.563 282.56 164.163 281.992L164.615 281.912C167.786 284.282 170.798 287.441 173.826 289.693C177.722 292.591 184.775 299.117 188.938 300.798C190.934 304.159 208.833 312.884 212.716 315.079C215.668 316.747 219.876 320.324 222.69 322.457C224.341 324.764 227.669 327.547 229.72 330.102C253.251 359.402 251.312 401.568 238.076 434.847C236.298 439.317 235.094 443.679 232.278 447.747Z"/><path fill="#502E20" transform="scale(2.048 2.048)" d="M133.085 204.47L133.203 204.227C133.737 203.906 136.992 200.965 138.222 200.114C143.806 196.249 150.195 191.657 156.302 188.701C156.533 194.101 156.434 199.94 156.431 205.375C156.457 213.03 156.414 220.684 156.303 228.338C159.558 233.817 176.19 241.063 169.487 248.013C167.556 250.016 158.495 244.832 156.224 243.633C156.774 248.291 156.45 258.564 156.441 263.738L156.431 300.702C158.634 300.61 160.261 300.649 162.472 300.747C166.533 308.394 169.152 312.761 176.497 318.12C178.221 319.379 181.74 321.084 182.876 322.603C169.619 322.235 155.13 323.254 142.006 322.418C139.136 321.24 136.7 319.515 134.54 317.303C134.294 314.206 134.607 310.993 134.275 307.793C132.007 306.122 126.27 301.556 125.402 299.02C124.294 295.786 124.067 291.948 123.582 288.554C122.464 280.74 118.97 258.207 122.486 251.777C122.974 250.886 123.685 250.101 124.693 249.824C125.866 249.501 127.138 249.971 128.145 250.563C132.102 252.888 133.267 259.483 134.343 263.581C134.539 262.223 134.518 256.364 134.574 254.586C133.71 254.901 133.593 254.986 132.648 254.912C132.065 254.388 131.925 254.141 131.864 253.301C131.216 244.263 132.052 234.733 131.525 225.726C131.81 222.585 131.438 205.78 132.016 204.631C132.382 204.593 132.723 204.546 133.085 204.47Z"/><path fill="#700000" transform="scale(2.048 2.048)" d="M133.085 204.47L133.203 204.227C133.737 203.906 136.992 200.965 138.222 200.114C143.806 196.249 150.195 191.657 156.302 188.701C156.533 194.101 156.434 199.94 156.431 205.375C156.457 213.03 156.414 220.684 156.303 228.338C159.558 233.817 176.19 241.063 169.487 248.013C167.556 250.016 158.495 244.832 156.224 243.633C153.741 241.661 134.956 228.655 134.514 228.078L134.497 208.947C134.503 207.558 134.981 205.574 134.136 204.559L133.085 204.47Z"/><path fill="#502E20" transform="scale(2.048 2.048)" d="M133.085 204.47L133.203 204.227C133.737 203.906 136.992 200.965 138.222 200.114C143.806 196.249 150.195 191.657 156.302 188.701C156.533 194.101 156.434 199.94 156.431 205.375C156.457 213.03 156.414 220.684 156.303 228.338C151.487 226.403 137.506 209.557 134.497 208.947C134.503 207.558 134.981 205.574 134.136 204.559L133.085 204.47Z"/><path fill="#700000" transform="scale(2.048 2.048)" d="M134.275 307.793C132.007 306.122 126.27 301.556 125.402 299.02C124.294 295.786 124.067 291.948 123.582 288.554C122.464 280.74 118.97 258.207 122.486 251.777C122.974 250.886 123.685 250.101 124.693 249.824C125.866 249.501 127.138 249.971 128.145 250.563C132.102 252.888 133.267 259.483 134.343 263.581C134.672 273.123 134.45 283.088 134.528 292.677C134.552 295.671 134.676 305.397 134.275 307.793Z"/><path fill="#FEFEFE" transform="scale(2.048 2.048)" d="M131.525 225.726C131.81 222.585 131.438 205.78 132.016 204.631C132.382 204.593 132.723 204.546 133.085 204.47L134.136 204.559C134.981 205.574 134.503 207.558 134.497 208.947L134.514 228.078C134.597 236.914 134.617 245.75 134.574 254.586C133.71 254.901 133.593 254.986 132.648 254.912C132.065 254.388 131.925 254.141 131.864 253.301C131.216 244.263 132.052 234.733 131.525 225.726Z"/><path fill="#502E20" transform="scale(2.048 2.048)" d="M188.938 300.798C195.56 300.393 204.113 300.613 210.883 300.614L249.399 300.632L289.738 300.618C296.656 300.616 305.645 300.395 312.44 300.769C310.742 303.748 292.324 313.071 288.66 315.128C285.539 316.88 281.684 320.465 278.722 322.421C276.04 322.763 271.929 322.64 269.1 322.636L253.606 322.613L234.342 322.633C230.804 322.636 226.113 322.771 222.69 322.457C219.876 320.324 215.668 316.747 212.716 315.079C208.833 312.884 190.934 304.159 188.938 300.798Z"/><path fill="#700000" transform="scale(2.048 2.048)" d="M104.046 237.687C105.621 237.642 107.324 238.091 108.627 238.986C115.091 243.422 119.322 282.762 120.832 292.721C120.919 293.297 121.112 293.802 120.763 294.293C120.063 294.114 119.815 293.596 119.36 292.991C112.405 284.948 104.992 275.388 101.976 264.931C100.748 260.673 100.515 251.791 100.677 247.173C100.807 243.489 101.198 240.276 104.046 237.687Z"/><path fill="#700000" transform="scale(2.048 2.048)" d="M394.569 237.788C395.88 237.683 396.365 237.519 397.447 238.364C399.234 239.76 399.784 243.205 399.875 245.352C400.096 250.519 399.955 261.703 398.381 266.395C395.438 275.168 388.666 284.714 382.698 291.577C381.723 292.7 380.744 293.922 379.791 295.072C380.182 288.782 381.433 280.748 382.462 274.373C384.066 264.438 385.811 253.505 388.961 243.956C390.119 240.444 391.386 239.265 394.569 237.788Z"/><path fill="#4F4F50" transform="scale(2.048 2.048)" d="M291.23 60.0699C293.011 60.2102 296.362 60.077 298.257 60.0602C298.15 63.9656 298.217 67.8907 298.207 71.7983C298.199 74.4419 297.991 77.2865 298.346 79.9046C298.528 81.2452 298.812 82.923 299.791 83.9315C301.04 85.2178 303.183 85.3991 304.878 85.3508C306.271 85.3111 307.695 84.987 308.671 83.9239C311.336 81.0213 310.369 64.4905 310.236 60.1309C312.591 60.1748 315.195 60.0916 317.569 60.0665C317.45 62.3082 317.516 65.0929 317.508 67.375C317.54 73.8311 319.278 86.9856 311.941 90.6763C304.867 94.2347 293.673 92.9461 291.664 83.9233C290.774 79.9246 291.13 73.5132 291.102 69.2414C291.09 67.384 290.748 61.5272 291.23 60.0699Z"/><path fill="#4F4F50" transform="scale(2.048 2.048)" d="M268.333 60.0955C273.364 60.3598 281.665 60.2281 286.731 60.0529C286.55 62.5424 286.548 64.2621 286.605 66.7725C282.642 66.3694 278.993 66.8019 275.093 66.5043C275.246 68.3444 275.182 70.9447 275.19 72.8428C278.72 72.7077 282.585 72.8053 286.194 72.7244C286.202 73.9449 286.403 78.5379 285.908 79.3278L285.441 79.3144C282.064 79.176 278.542 79.2906 275.101 79.1845C275.325 83.5273 275.033 87.9004 275.317 92.3311C272.836 92.0913 270.52 92.1155 268.041 92.1592C268.044 88.4663 267.582 61.2555 268.333 60.0955Z"/><path fill="#4F4F50" transform="scale(2.048 2.048)" d="M345.291 60.0975C347.438 60.1757 350.049 60.0859 352.231 60.0693C351.965 68.1611 352.191 77.5273 352.192 85.72C354.794 85.4053 361.008 85.5676 363.725 85.5808C363.533 87.9735 363.531 89.7388 363.786 92.1042C357.771 92.0809 350.984 91.9113 345.035 92.17C345.032 88.8256 344.797 60.9429 345.291 60.0975Z"/><path fill="#4F4F50" transform="scale(2.048 2.048)" d="M322.355 60.0836C324.196 60.219 327.557 60.076 329.508 60.0536C329.243 62.1261 329.434 65.4097 329.394 67.5905C329.284 73.4881 329.616 79.8199 329.312 85.6833C333.076 85.5106 337.242 85.5937 341.039 85.5975C340.864 87.9406 340.859 89.1228 340.944 91.5147L340.891 91.8449C340.763 91.9457 340.635 92.0464 340.507 92.1472C335.093 92.0538 327.467 91.9926 322.286 92.169L322.234 70.2646C322.231 68.3586 322.103 61.6363 322.355 60.0836Z"/><path fill="#4F4F50" transform="scale(2.048 2.048)" d="M389.846 74.9271C390.31 76.2083 390.106 79.6041 389.975 81.0291C387.874 82.5818 384.796 84.4906 382.557 85.9738C385.099 86.051 387.578 86.0072 390.118 85.9729C390.042 87.642 390.077 89.3904 390.085 91.0676C384.81 90.6966 377.449 90.9124 372.063 90.9199C370.863 90.92 369.645 91.0048 368.446 91.0692C368.344 85.4093 366.968 74.507 377.161 76.4224C379.726 76.9044 381.16 78.8834 382.405 81.0283C384.28 79.1522 387.708 76.5779 389.846 74.9271ZM376.812 86.0132C378.054 85.9948 377.795 86.1944 378.508 85.5501C379.412 82.9709 377.44 80.8766 374.8 80.7558C373.062 81.4791 371.516 83.7649 372.108 85.5961C373.081 86.3406 375.385 86.0445 376.812 86.0132Z"/><path fill="#4F4F50" transform="scale(2.048 2.048)" d="M368.306 94.0453C371.989 94.0029 384.74 92.8687 387.994 96.2921C391.568 100.052 391.392 108.528 386.135 110.861C382.877 112.307 376.265 111.926 372.188 111.936L368.341 112.063C368.35 110.322 368.322 108.893 368.219 107.156C373.054 106.822 378.314 107.493 383.08 106.655C384.825 106.349 385.611 104.179 385.584 102.541C385.573 101.605 385.167 100.717 384.467 100.096C382.185 98.1032 371.8 98.7568 368.358 98.8802C368.43 97.0183 368.458 95.8892 368.306 94.0453Z"/><path fill="#4F4F50" transform="scale(2.048 2.048)" d="M375.14 131.728C375.622 131.831 375.438 131.76 375.836 132.113C376.035 133.5 375.852 135.14 375.764 136.564C374.233 138.081 373.002 139.424 372.786 141.654C372.448 145.139 375.438 147.886 378.723 148.18C380.472 148.348 382.212 147.788 383.534 146.632C387.504 143.189 385.963 139.81 382.798 136.68C382.584 135.017 382.572 133.077 382.518 131.378C385.923 132.912 387.57 134.216 389.319 137.526C390.32 139.663 390.614 142.063 390.159 144.378C389.576 147.303 387.741 149.774 385.224 151.342C382.565 153.011 379.331 153.496 376.3 152.678C367.979 150.488 365.422 140.573 371.309 134.401C372.543 133.107 373.596 132.546 375.14 131.728Z"/><path fill="#4F4F50" transform="scale(2.048 2.048)" d="M367.779 174.424L368.118 175.664C369.045 171.376 367.037 167.204 371.693 164.164C373.288 163.127 375.245 162.809 377.086 163.288C378.978 163.782 380.572 165.057 381.467 166.797C382.59 168.947 382.504 170.823 382.494 173.158C385.164 173.019 387.455 173.017 390.118 173.041C390.081 174.686 390.01 176.409 390.085 178.044C383.566 177.763 377.025 178.033 370.539 177.776C369.508 177.8 368.759 177.624 367.757 177.446L367.779 174.424ZM376.015 173.012C377.33 173.011 377.483 173.237 378.403 172.566C379.615 170.069 377.601 168.125 375.152 167.753C373.244 168.269 371.633 170.282 371.946 172.232C372.878 173.519 374.414 173.047 376.015 173.012Z"/><path fill="#4F4F50" transform="scale(2.048 2.048)" d="M386.938 60.7656L390.095 60.7872C389.977 64.1448 389.998 70.2712 390.224 73.5451C383.632 73.3086 375.023 73.1962 368.401 73.4842C368.408 71.5154 368.064 61.9087 368.658 60.7878C370.095 60.7394 371.57 60.8416 373.009 60.9135C372.811 63.5472 373.053 65.9682 372.761 68.6812C374.223 68.5456 375.572 68.5628 377.038 68.5611C376.943 66.2819 377.035 63.4441 377.046 61.1237L381.439 61.0591C381.252 63.4705 381.48 66.0075 381.304 68.5883L385.761 68.5124C385.603 66.3406 385.265 63.4893 385.693 61.4364C386.294 60.7309 385.919 60.9896 386.938 60.7656Z"/><path fill="#4F4F50" transform="scale(2.048 2.048)" d="M368.485 113.412L372.888 113.448C372.899 115.607 372.911 117.603 372.785 119.766C378.595 119.643 384.436 119.809 390.265 119.675C390.05 121.606 390.047 122.624 390.093 124.581C388.242 124.488 386.181 124.503 384.313 124.476C380.475 124.49 376.558 124.544 372.731 124.408C372.969 126.247 372.91 128.948 372.923 130.863C371.225 130.721 370.125 130.737 368.416 130.779C368.493 127.108 367.984 116.303 368.485 113.412Z"/><path fill="#4F4F50" transform="scale(2.048 2.048)" d="M366.552 158.703L367.727 158.833C368.523 158.14 368.32 157.852 368.358 156.741C369.743 155.514 387.143 156.073 390.122 156.009C390.08 157.686 390.008 159.377 390.089 161.05C385.715 160.849 381.425 160.935 377.057 160.942C374.892 160.946 369.688 161.36 367.965 160.223C367.701 159.163 367.404 159.182 366.552 158.703Z"/></svg>